<svg width="400" height="400" viewBox="0 0 400 400" fill="none" xmlns="http://www.w3.org/2000/svg">
<path d="M312.557 179.092L251.557 174.532C245.649 174.084 239.719 175.062 234.267 177.382L218.041 184.298C215.859 188.26 213.177 191.925 210.061 195.204C202.233 203.564 172.213 219.106 156.367 222.374C152.633 223.038 148.785 222.366 145.499 220.474C138.32 226.234 130.797 231.552 122.973 236.4C122.973 236.4 137.793 278.618 192.973 254.754L236.863 235.716L227.249 258.782C227.515 271.968 227.591 289.258 226.717 300.782C237.021 303.92 248.011 304.026 258.373 301.084C262.513 272.964 265.667 228.58 254.951 211.822L307.393 211.328C314.001 199.426 313.419 192.658 312.557 179.092Z" fill="#80CAEE"/>
<path d="M215.122 162.752L221.506 134.67C221.648 134.055 221.538 133.41 221.204 132.875C220.868 132.341 220.334 131.961 219.72 131.82C219.106 131.679 218.46 131.788 217.926 132.123C217.39 132.458 217.012 132.991 216.87 133.606L209.346 166.704" fill="#80CAEE"/>
<path d="M215.122 162.752L221.506 134.67C221.648 134.055 221.538 133.41 221.204 132.875C220.868 132.341 220.334 131.961 219.72 131.82C219.106 131.679 218.46 131.788 217.926 132.123C217.39 132.458 217.012 132.991 216.87 133.606L209.346 166.704C210.292 170.194 212.834 174.875 215.122 162.752Z" fill="#80CAEE"/>
<path d="M210.183 56.3499C210.183 61.0623 208.785 65.6687 206.167 69.5869C203.549 73.5051 199.829 76.5589 195.475 78.3623C191.121 80.1657 186.331 80.6375 181.709 79.7181C177.087 78.7989 172.842 76.5297 169.51 73.1975C166.178 69.8653 163.908 65.6199 162.989 60.9981C162.07 56.3763 162.542 51.5857 164.345 47.2321C166.148 42.8785 169.202 39.1573 173.12 36.5393C177.038 33.9213 181.645 32.5239 186.357 32.5239C192.675 32.5277 198.733 35.0391 203.201 39.5065C207.667 43.9739 210.179 50.0321 210.183 56.3499Z" fill="#80CAEE"/>
<path d="M334.601 182.094C330.229 192.459 324.053 201.968 316.361 210.176C320.579 210.822 324.797 211.776 328.407 212.342C332.167 210.702 335.693 208.57 338.891 206C348.891 197.944 369.491 187.95 374.003 182.25C365.833 181.068 345.845 181.866 334.601 182.094Z" fill="#3C50E0"/>
<path d="M257.302 324.216C246.772 320.24 237.03 314.424 228.536 307.038C228.042 311.258 227.282 315.514 226.826 319.162C228.608 322.862 230.87 326.312 233.552 329.422C241.952 339.074 252.706 359.29 258.552 363.622C259.468 355.414 257.95 335.464 257.302 324.216Z" fill="#3C50E0"/>
<path d="M126.848 203.754C126.088 204.134 125.29 204.476 124.492 204.818C120.765 200.438 117.263 195.873 114 191.138C114.342 191.938 124.83 214.622 142.234 223.172C143.374 222.26 144.476 221.386 145.502 220.512C139 216.978 132.244 210.138 126.848 203.754Z" fill="#3C50E0"/>
<path d="M226.789 240.044C226.789 240.044 227.131 248.062 227.321 258.74L236.859 235.712L226.789 240.044Z" fill="#3C50E0"/>
<path d="M124.455 104.042C124.455 104.042 117.801 91.576 102.149 99.178C86.4969 106.78 89.5329 137.33 89.5329 137.33C89.5329 137.33 75.6229 143.98 68.2129 155.19C56.7369 172.556 62.5149 198.776 98.2009 198.776C96.4997 191.291 95.9107 183.595 96.4529 175.938C97.4029 162.448 102.305 150.098 106.637 137.444C112.161 121.086 110.975 122.394 112.907 116.392C108.307 112.022 113.781 106.778 116.251 111.032C117.297 112.752 117.547 112.82 118.383 113.082C122.911 114.5 131.127 116.082 135.583 114.606C135.589 114.49 135.969 104.042 124.455 104.042Z" fill="#3C50E0"/>
<path d="M116.019 142.726L111.953 132.542C113.309 134.359 114.908 135.983 116.703 137.368C116.369 139.139 116.141 140.928 116.019 142.726Z" fill="#3C50E0"/>
<path d="M169.79 315.286C170.053 316.572 169.928 317.906 169.433 319.12C168.938 320.334 168.094 321.374 167.007 322.11C165.92 322.844 164.64 323.24 163.329 323.248C162.017 323.254 160.733 322.872 159.638 322.15C158.544 321.428 157.688 320.396 157.179 319.188C156.671 317.978 156.532 316.646 156.781 315.358C157.029 314.07 157.654 312.884 158.576 311.952C159.499 311.02 160.677 310.382 161.962 310.118C162.815 309.938 163.696 309.93 164.553 310.094C165.41 310.258 166.226 310.588 166.954 311.07C167.681 311.55 168.307 312.17 168.794 312.894C169.281 313.618 169.619 314.43 169.79 315.286Z" fill="#3C50E0"/>
<path d="M210.183 56.3499H211.183V56.3493L210.183 56.3499ZM181.709 79.7181L181.904 78.7373L181.904 78.7373L181.709 79.7181ZM169.51 73.1975L170.217 72.4904L170.217 72.4904L169.51 73.1975ZM162.989 60.9981L162.008 61.1932V61.1932L162.989 60.9981ZM164.345 47.2321L163.421 46.8494L163.421 46.8495L164.345 47.2321ZM186.357 32.5239L186.358 31.5239H186.357V32.5239ZM203.201 39.5065L203.908 38.7995L203.908 38.7994L203.201 39.5065ZM262.732 253.021C262.239 252.772 261.637 252.97 261.389 253.463C261.14 253.956 261.338 254.558 261.831 254.807L262.732 253.021ZM281.927 263.832L281.477 264.725L281.478 264.725L281.927 263.832ZM294.921 264.8L294.609 263.85L294.609 263.85L294.921 264.8ZM304.805 256.308L305.697 256.76L305.698 256.759L304.805 256.308ZM328.194 212.223C328.443 211.73 328.245 211.128 327.752 210.879C327.259 210.63 326.658 210.828 326.409 211.321L328.194 212.223ZM340.659 183.125C340.41 183.618 340.607 184.219 341.1 184.468C341.593 184.718 342.194 184.52 342.444 184.027L340.659 183.125ZM355.421 156.14L356.314 156.591L356.314 156.59L355.421 156.14ZM356.389 143.146L355.439 143.459V143.459L356.389 143.146ZM347.897 133.264L348.349 132.372L348.348 132.371L347.897 133.264ZM209.526 62.2364C209.033 61.9873 208.432 62.185 208.183 62.678C207.934 63.1709 208.131 63.7724 208.624 64.0215L209.526 62.2364ZM129.491 153.949C129.242 154.442 129.44 155.044 129.933 155.293C130.426 155.542 131.027 155.344 131.276 154.851L129.491 153.949ZM171.552 75.0684C171.801 74.5754 171.603 73.9739 171.11 73.725C170.617 73.4761 170.015 73.674 169.766 74.1671L171.552 75.0684ZM356.226 143.067C356.772 142.979 357.142 142.466 357.054 141.921C356.967 141.375 356.453 141.005 355.908 141.093L356.226 143.067ZM240.127 160.776L239.238 161.234C239.436 161.618 239.859 161.832 240.286 161.763L240.127 160.776ZM198.16 77.0887C197.908 76.5977 197.305 76.4046 196.814 76.6575C196.323 76.9103 196.13 77.5133 196.382 78.0043L198.16 77.0887ZM177.341 260.933C177.713 260.524 177.683 259.892 177.274 259.52C176.865 259.149 176.233 259.179 175.861 259.587L177.341 260.933ZM145.798 282.812L145.38 281.903L145.38 281.904L145.798 282.812ZM71.0094 285.036L70.6461 285.968L70.6461 285.968L71.0094 285.036ZM38.9202 264.354L38.2217 265.07L38.2218 265.07L38.9202 264.354ZM17.4656 232.776L16.543 233.162L16.543 233.162L17.4656 232.776ZM10.0581 195.324L11.0581 195.329L10.0581 195.324ZM40.3658 127.337C40.7653 126.956 40.7799 126.323 40.3985 125.923C40.017 125.524 39.384 125.509 38.9846 125.891L40.3658 127.337ZM115.02 145.917C115.04 146.469 115.504 146.9 116.056 146.879C116.608 146.859 117.039 146.395 117.019 145.843L115.02 145.917ZM128.017 134.46L128.836 135.034C128.847 135.018 128.858 135.002 128.868 134.986L128.017 134.46ZM134.347 115.006C134.337 114.454 133.881 114.014 133.329 114.024C132.777 114.034 132.337 114.49 132.347 115.042L134.347 115.006ZM114.001 191.138L114.825 190.571C114.533 190.147 113.967 190.014 113.517 190.263C113.066 190.513 112.879 191.063 113.084 191.536L114.001 191.138ZM124.489 204.818L123.728 205.466C124.01 205.798 124.474 205.909 124.876 205.74L124.489 204.818ZM140.801 194.43L140.129 193.689L140.129 193.69L140.801 194.43ZM150.329 183.652L151.147 184.228C151.399 183.871 151.389 183.392 151.124 183.044L150.329 183.652ZM132.129 156.9L131.272 157.415L131.273 157.416L132.129 156.9ZM120.503 146.8L120.894 145.879C120.884 145.875 120.875 145.871 120.866 145.868L120.503 146.8ZM113.967 145.964L113.852 144.971C113.805 144.976 113.759 144.985 113.714 144.997L113.967 145.964ZM108.938 146.076L108.728 147.053H108.728L108.938 146.076ZM105.031 143.127C104.602 142.779 103.972 142.845 103.624 143.275C103.277 143.704 103.343 144.333 103.772 144.681L105.031 143.127ZM312.898 181.057C312.346 181.036 311.882 181.467 311.862 182.019C311.842 182.571 312.273 183.035 312.824 183.055L312.898 181.057ZM334.559 182.094L335.481 182.482C335.612 182.17 335.577 181.813 335.387 181.533C335.198 181.253 334.879 181.088 334.541 181.094L334.559 182.094ZM316.359 210.176L316.204 211.164C316.532 211.215 316.863 211.101 317.09 210.859L316.359 210.176ZM308.516 208.342C307.965 208.308 307.491 208.728 307.457 209.279C307.423 209.83 307.843 210.304 308.394 210.338L308.516 208.342ZM377.725 183.728L376.754 183.964L376.754 183.965L377.725 183.728ZM346.033 206.718L345.405 205.939L345.401 205.943L346.033 206.718ZM336.233 212.494L336.414 213.478C336.479 213.466 336.543 213.447 336.604 213.422L336.233 212.494ZM328.433 212.342L328.035 211.425C327.638 211.597 327.397 212.005 327.438 212.436C327.478 212.867 327.792 213.223 328.214 213.318L328.433 212.342ZM338.929 206L339.556 206.779L339.557 206.778L338.929 206ZM334.601 182.094L334.581 181.094C334.186 181.102 333.833 181.341 333.68 181.705L334.601 182.094ZM338.889 205.996L338.262 205.217L338.262 205.217L338.889 205.996ZM328.401 212.342L328.245 213.33C328.433 213.359 328.626 213.335 328.8 213.259L328.401 212.342ZM316.355 210.176L315.626 209.492C315.372 209.763 315.289 210.152 315.41 210.503C315.531 210.853 315.837 211.108 316.204 211.164L316.355 210.176ZM257.845 301.59C257.879 301.039 257.458 300.565 256.907 300.532C256.356 300.499 255.882 300.919 255.849 301.47L257.845 301.59ZM257.303 324.254L256.949 325.189C257.265 325.309 257.62 325.261 257.893 325.062C258.166 324.862 258.32 324.539 258.302 324.201L257.303 324.254ZM228.575 307.078L227.582 306.961C227.543 307.289 227.67 307.616 227.919 307.833L228.575 307.078ZM229.993 301.399C230.005 300.847 229.566 300.39 229.014 300.378C228.462 300.367 228.005 300.805 227.993 301.357L229.993 301.399ZM258.557 363.622L259.552 363.725C259.588 363.373 259.436 363.029 259.152 362.818L258.557 363.622ZM257.227 367.422L257.531 368.375L257.532 368.374L257.227 367.422ZM233.097 336.566L233.853 335.911L233.847 335.904L233.097 336.566ZM226.941 326.952L225.964 327.164C225.978 327.23 225.999 327.294 226.027 327.356L226.941 326.952ZM226.827 319.152L227.729 318.72C227.542 318.329 227.125 318.104 226.696 318.161C226.267 318.217 225.924 318.543 225.844 318.968L226.827 319.152ZM233.553 329.412L232.797 330.066L232.797 330.067L233.553 329.412ZM257.303 324.216L258.302 324.159C258.279 323.764 258.026 323.42 257.657 323.28L257.303 324.216ZM258.557 363.616L257.962 364.42C258.25 364.633 258.629 364.676 258.957 364.533C259.285 364.389 259.512 364.082 259.551 363.726L258.557 363.616ZM233.557 329.416L232.801 330.07L232.801 330.07L233.557 329.416ZM226.831 319.156L225.839 319.032C225.815 319.222 225.847 319.416 225.93 319.589L226.831 319.156ZM228.541 307.032L229.198 306.277C228.918 306.034 228.526 305.966 228.18 306.099C227.835 306.233 227.591 306.547 227.548 306.916L228.541 307.032ZM141.798 224.069C142.294 224.313 142.893 224.109 143.137 223.613C143.38 223.117 143.176 222.518 142.68 222.274L141.798 224.069ZM127.613 203.108C127.256 202.686 126.625 202.634 126.204 202.99C125.782 203.347 125.729 203.978 126.086 204.4L127.613 203.108ZM145.507 220.554L146.001 219.684C145.996 219.681 145.991 219.679 145.986 219.676L145.507 220.554ZM156.375 222.416L156.551 223.4C156.558 223.399 156.566 223.398 156.573 223.396L156.375 222.416ZM210.069 195.246L210.799 195.929L210.799 195.929L210.069 195.246ZM221.849 149.304L220.851 149.368L220.851 149.368L221.849 149.304ZM219.189 145.304L218.238 144.996L218.237 144.997L219.189 145.304ZM213.413 169.092L212.469 168.761C212.467 168.768 212.465 168.775 212.462 168.782L213.413 169.092ZM212.425 170.346L212.921 171.214C212.93 171.209 212.939 171.204 212.948 171.198L212.425 170.346ZM209.425 166.926L208.465 167.205L208.465 167.205L209.425 166.926ZM207.411 158.726L206.464 159.046L206.464 159.047L207.411 158.726ZM203.231 162.488L202.232 162.451L202.232 162.451L203.231 162.488ZM196.087 183.768L196.583 184.637L196.59 184.633L196.087 183.768ZM179.367 191.672L179.01 190.738L179.003 190.741L179.367 191.672ZM160.785 196.232L160.839 197.23C160.857 197.23 160.875 197.228 160.893 197.226L160.785 196.232ZM149.095 185.767C148.772 185.319 148.147 185.218 147.699 185.541C147.251 185.863 147.149 186.488 147.472 186.936L149.095 185.767ZM214.148 162.53C214.026 163.069 214.363 163.605 214.902 163.727C215.44 163.849 215.976 163.512 216.098 162.974L214.148 162.53ZM221.507 134.67L220.533 134.445L220.532 134.448L221.507 134.67ZM221.205 132.875L222.053 132.345L222.052 132.343L221.205 132.875ZM219.721 131.82L219.945 130.845L219.945 130.845                                                                                                                                                                                                                                                                                                                                                                                                                                                                                                                                                                                                                                                                                                                                                                                                                                                                                                                                                                                                                                                                                                                                                                                                                                                                                                                                                                                                                                                                                                                                                                                                                                                                                                                                                                                                                                                                                                                                                                                                                                                                                                                                                                                                                                                                                                                                                                                                                                                                                                                                                                                                                                                                                                                                                                                                                                                                                                                                                                                                                                                                                                                                                                                                                                                                                                                                                                                                                                                                                                                                                                                                                                                                                                                                                                                                                                                                                                                                                                                                                                                                                                                                                                                                                                                                                                                                                                                                                                                                                                                                                                                                                                                                                                                                                                                                                                                                                                                                                                                                                                                                                                                                                                                                                                                                                                                                                                                                                                                                                                                                                                                                                                                                                                                                                                                                                                                                                                                                                                                                                                                                                                                                                                                                                                                                                                                                                                                                                                                                                                                                                                                                                                                                                                                                                                                                                                                                                                                                                                                                                                                                                                                                                                                                                                                                                                                                                                                                                                                                                                                                                                                                                                                                                                                                                                                                                                                                                                                                                                                                                                                                                                                                                                                                                                                                                                                                                                                                                                                                                                                                                                                                                                                                                                                                                                                                                                                                                                                                                                                                                                                                                                                                                                                                                                                                                                                                                                                                                                                                                                                                                                                                                                                                                                                                                                                                                                                                                                                                                                                                                                                                                                                                                                                                                                                                                                                                                                                                                                                                                                                                                                                                                                                                                                                                                                                                                                                                                                                                                                                                                                                                                                                                                                                                                                                                                                                                                                                                                                                                                                                                                                                                                                                                                                                                                                                                                                                                                                                                                                                                                                                                                                                                                                                                                                                                                                                                                                                                                                                                                                                                                                                                                                                                                                                                                                                                                                                                                                                                                                                                                                                                                                                                                                                                                                                                                                                                                                                                                                                                                                                                                                                                                                                                                                                                                                                                                                                                                                                                                                                                                                                                                                                                                                                                                                                                                                                                                                                                                                                                                                                                                                                                                                                                                                                                                                                                                                                                                                                                                                                                                                                                                                                                                                                                                                                                                                                                                                                                                                                                                                                                                                                                                                                                                                                                                                                                                                                                                                                                                                                                                                                                                                                                                                                                                                                                                                                                                                                                                                                                                                                                                                                                                                                                                                                                                                                                                                                                                                                                                                                                                                                                                                                                                                                                                                                                                                                                                                                                                                                                                                                                                                                                                                                                                                                                                                                                                                                                                                                                                                                                                                                                                                                                                                                                                                                                                                                                                                                                                                                                                                                                                                                                                                                                                                                                                                                                                                                                                                                                                                                                                                                                                                                                                                                                                                                                                                                                                                                                                                                                                                                                                                                                                                                                                                                                                                                                                                                                                                                                                                                                                                                                                                                                                                                                                                                                                                                                                                                                                                                                                                                                                                                                                                                                                                                                                                                                                                                                                                                                                                                                                                                                                                                                                                                                                                                                                                                                                                                                                                                                                                                                                                                                                                                                                                                                                                                                                                                                                                                                                                                                                                                                                                                                                                                                                                                                                                                                                                                                                                                                                                                                                                                                                                                                                                                                                                                                                                                                                                                                                                                                                                                                                                                                                                                                                                                                                                                                                                                                                                                                                                                                                                                                                                                                                                                                                                                                                                                                                                                                                                                                                                                                                                                                                                                                                                                                                                                                                                                                                                                                                                                                                                                                                                                                                                                                                                                                                                                                                                                                                                                                                                                                                                                                                                                                                                                                                                                                                                                                                                                                                                                                                                                                                                                                                                                                                                                                                                                                                                                                                                                                                                                                                                                                                                                                                                                                                                                                                                                                                                                                                                                                                                                                                                                                                                                                                                                                                                                                                                                                                                                                                                                                                                                                                                                                                                                                                                                                                                                                                                                                                                                                                                                                                                                                                                                                                                                                                                                                                                                                                                                                                                                                                                                                                                                                                                                                                                                                                                                                                                                                                                                                                                                                                                                                                                                                                                                                                                                                                                                                                                                                                                                                                                                                                                                                                                                                                                                                                                                                                                                                                                                                                                                                                                                                                                                                                                                                                                                                                                                                                                                                                                                                                                                                                                                                                                                                                                                                                                                                                                                                                                                                                                                                                                                                                                                                                                                                                                                                                                                                                                                                                                                                                                                                                                                                                                                                                                                                                                                                                                                                                                                                                                                                                                                                                                                                                                                                                                                                                                                                                                                                                                                                                                                                                                                                                                                                                                                                                                                                                                                                                                                                                                                                                                                                                                                                                                                                                                                                                                                                                                                                                                                                                                                                                                                                                                                                                                                                                                                                                                                                                                                                                                                                                                                                                                                                                                                                                                                                                                                                                                                                                                                                                                                                137.71 19.3482 144.704L20.9387 145.916ZM38.8722 125.98C33.3288 133.151 28.4739 140.829 24.3717 148.911L26.1551 149.817C30.2005 141.846 34.988 134.275 40.4546 127.204L38.8722 125.98ZM24.6425 150.148L33.9645 157.532L35.2063 155.964L25.8843 148.58L24.6425 150.148ZM33.9637 157.531C34.39 157.87 34.8913 158.101 35.4254 158.205L35.8086 156.242C35.5887 156.199 35.3825 156.104 35.2072 155.965L33.9637 157.531ZM35.4254 158.205C35.9596 158.309 36.5107 158.284 37.0328 158.131L36.4704 156.211C36.2553 156.274 36.0285 156.285 35.8086 156.242L35.4254 158.205ZM37.0328 158.131C37.5548 157.978 38.0328 157.702 38.4263 157.326L37.0442 155.88C36.8825 156.035 36.6857 156.148 36.4704 156.211L37.0328 158.131ZM38.4263 157.326C38.8193 156.95 39.1168 156.485 39.2934 155.97L37.4015 155.322C37.3288 155.533 37.2063 155.725 37.0442 155.88L38.4263 157.326ZM39.2921 155.974L53.9581 113.728L52.0687 113.072L37.4027 155.318L39.2921 155.974ZM53.9539 113.74C54.1963 113.069 54.2218 112.339 54.0267 111.653L52.103 112.2C52.1834 112.483 52.1729 112.784 52.073 113.06L53.9539 113.74ZM54.0266 111.652C53.8311 110.966 53.4249 110.359 52.8651 109.916L51.6249 111.485C51.8551 111.667 52.0225 111.918 52.1031 112.2L54.0266 111.652ZM52.8652 109.916C52.3054 109.474 51.6206 109.219 50.9077 109.187L50.8187 111.185C51.1122 111.198 51.3942 111.303 51.6249 111.485L52.8652 109.916ZM50.9077 109.187C50.1952 109.155 49.4902 109.348 48.8933 109.74L49.9895 111.412C50.235 111.251 50.5253 111.172 50.8187 111.185L50.9077 109.187ZM307.531 37.2547C303.436 35.2165 299.054 35.6358 295.846 37.6829C292.627 39.7368 290.604 43.4295 291.277 47.8021L293.254 47.4978C292.711 43.9704 294.317 41.0311 296.921 39.3689C299.537 37.7001 303.172 37.3194 306.64 39.0452L307.531 37.2547ZM291.587 46.9155L288.053 50.1815L289.41 51.6503L292.944 48.3843L291.587 46.9155ZM288.653 51.9129L293.517 52.2929L293.673 50.299L288.809 49.919L288.653 51.9129ZM292.735 51.8051C295.074 55.759 299.207 57.8081 303.228 57.9061C307.252 58.0043 311.272 56.1417 313.262 52.161L311.473 51.2668C309.891 54.4321 306.672 55.9896 303.276 55.9067C299.877 55.8238 296.411 54.0908 294.456 50.7867L292.735 51.8051ZM313.284 52.1142C314.482 49.3716 314.543 46.2667 313.457 43.4788L311.593 44.2047C312.488 46.5003 312.437 49.0563 311.451 51.3136L313.284 52.1142ZM313.457 43.4788C312.371 40.6907 310.226 38.446 307.49 37.2355L306.681 39.0644C308.933 40.061 310.699 41.9091 311.593 44.2047L313.457 43.4788ZM352.537 256.826C351.272 256.171 349.891 255.773 348.474 255.652L348.304 257.644C349.46 257.743 350.586 258.068 351.618 258.602L352.537 256.826ZM348.474 255.652C347.056 255.53 345.626 255.689 344.268 256.121L344.874 258.027C345.98 257.675 347.147 257.545 348.304 257.644L348.474 255.652ZM344.268 256.121C342.913 256.553 341.653 257.247 340.565 258.166L341.857 259.693C342.742 258.945 343.769 258.379 344.875 258.027L344.268 256.121ZM340.566 258.166C339.478 259.084 338.581 260.208 337.927 261.472L339.703 262.391C340.237 261.36 340.969 260.443 341.856 259.694L340.566 258.166ZM338.815 261.932C337.925 261.476 337.925 261.476 337.925 261.476C337.925 261.476 337.925 261.476 337.925 261.476C337.925 261.476 337.925 261.477 337.925 261.477C337.924 261.478 337.923 261.48 337.922 261.483C337.919 261.488 337.915 261.496 337.909 261.507C337.898 261.529 337.88 261.562 337.857 261.607C337.811 261.695 337.741 261.825 337.65 261.992C337.469 262.326 337.202 262.805 336.865 263.38C336.19 264.53 335.238 266.054 334.125 267.561C333.007 269.075 331.755 270.534 330.484 271.582C329.186 272.652 328.028 273.162 327.068 273.094L326.927 275.089C328.664 275.212 330.332 274.299 331.756 273.125C333.207 271.928 334.572 270.323 335.734 268.749C336.902 267.168 337.892 265.581 338.59 264.392C338.939 263.796 339.217 263.298 339.407 262.948C339.503 262.773 339.576 262.634 339.626 262.539C339.652 262.491 339.671 262.454 339.684 262.429C339.691 262.416 339.696 262.406 339.699 262.399C339.701 262.396 339.703 262.393 339.704 262.391C339.704 262.39 339.704 262.389 339.705 262.389C339.705 262.389 339.705 262.388 339.705 262.388C339.705 262.388 339.705 262.388 338.815 261.932ZM326.538 274.98L353.366 288.85L354.284 287.074L327.456 273.204L326.538 274.98ZM354.596 287.324C353.97 286.568 353.685 285.295 353.752 283.584C353.817 281.907 354.211 280 354.726 278.174C355.239 276.355 355.859 274.658 356.353 273.412C356.599 272.791 356.813 272.284 356.965 271.934C357.041 271.759 357.101 271.624 357.142 271.532C357.162 271.487 357.178 271.452 357.188 271.43C357.193 271.419 357.197 271.41 357.2 271.405C357.201 271.402 357.202 271.4 357.202 271.399C357.202 271.399 357.203 271.398 357.203 271.398C357.203 271.398 357.203 271.398 357.203 271.398C357.203 271.398 357.203 271.398 356.295 270.978C355.388 270.558 355.388 270.558 355.388 270.558C355.387 270.558 355.387 270.559 355.387 270.559C355.387 270.56 355.387 270.56 355.386 270.561C355.385 270.563 355.384 270.566 355.382 270.57C355.379 270.577 355.374 270.587 355.369 270.6C355.357 270.626 355.339 270.664 355.317 270.713C355.273 270.812 355.209 270.955 355.13 271.138C354.971 271.505 354.749 272.031 354.493 272.675C353.984 273.961 353.338 275.726 352.801 277.631C352.266 279.528 351.827 281.606 351.753 283.506C351.681 285.37 351.951 287.266 353.055 288.599L354.596 287.324ZM357.183 271.437C357.837 270.174 358.239 268.792 358.358 267.371L356.365 267.204C356.268 268.36 355.941 269.486 355.407 270.518L357.183 271.437ZM358.358 267.373C358.479 265.955 358.32 264.527 357.888 263.169L355.982 263.775C356.334 264.881 356.464 266.045 356.365 267.203L358.358 267.373ZM357.888 263.169C357.456 261.812 356.762 260.554 355.843 259.465L354.315 260.755C355.064 261.642 355.63 262.668 355.982 263.775L357.888 263.169ZM355.843 259.465C354.925 258.377 353.801 257.48 352.537 256.826L351.618 258.602C352.649 259.136 353.566 259.867 354.315 260.755L355.843 259.465ZM343.931 282.867C343.449 283.8 342.614 284.503 341.611 284.823L342.219 286.729C343.724 286.248 344.981 285.192 345.708 283.785L343.931 282.867ZM341.613 284.823C340.611 285.141 339.525 285.048 338.59 284.565L337.673 286.343C339.077 287.068 340.711 287.207 342.218 286.729L341.613 284.823ZM338.59 284.565C337.657 284.084 336.954 283.249 336.634 282.246L334.729 282.854C335.209 284.359 336.265 285.616 337.673 286.343L338.59 284.565ZM336.634 282.247C336.317 281.246 336.409 280.16 336.892 279.225L335.115 278.307C334.389 279.712 334.25 281.346 334.728 282.852L336.634 282.247ZM380.377 112.275L373.271 136.747L375.192 137.305L382.298 112.833L380.377 112.275ZM390.28 127.364L365.808 120.258L365.25 122.178L389.722 129.284L390.28 127.364ZM227.197 289.215C238.086 291.006 249.179 291.21 260.127 289.82L259.875 287.836C249.119 289.202 238.22 289.001 227.522 287.241L227.197 289.215ZM297.052 178.252C298.734 189.449 296.923 200.891 291.865 211.021L293.654 211.915C298.896 201.417 300.773 189.559 299.03 177.955L297.052 178.252ZM168.81 315.486C169.033 316.579 168.928 317.711 168.507 318.742L170.359 319.498C170.929 318.1 171.072 316.565 170.769 315.086L168.81 315.486ZM168.507 318.742C168.086 319.773 167.369 320.656 166.446 321.282L167.567 322.938C168.817 322.091 169.789 320.895 170.359 319.498L168.507 318.742ZM166.447 321.281C165.524 321.905 164.437 322.241 163.322 322.248L163.335 324.248C164.843 324.239 166.316 323.783 167.566 322.939L166.447 321.281ZM163.324 322.248C162.209 322.253 161.118 321.928 160.189 321.315L159.087 322.985C160.347 323.815 161.824 324.255 163.333 324.248L163.324 322.248ZM160.189 321.315C159.26 320.702 158.533 319.826 158.101 318.8L156.257 319.576C156.843 320.966 157.827 322.153 159.087 322.985L160.189 321.315ZM158.101 318.8C157.669 317.772 157.551 316.641 157.762 315.547L155.798 315.168C155.512 316.651 155.672 318.183 156.257 319.576L158.101 318.8ZM157.762 315.547C157.973 314.453 158.504 313.446 159.287 312.655L157.865 311.249C156.804 312.322 156.084 313.686 155.798 315.168L157.762 315.547ZM159.287 312.655C160.07 311.864 161.071 311.322 162.163 311.098L161.76 309.138C160.282 309.442 158.927 310.176 157.865 311.249L159.287 312.655ZM162.168 311.096C162.891 310.944 163.638 310.937 164.364 311.076L164.74 309.112C163.753 308.923 162.739 308.932 161.755 309.139L162.168 311.096ZM164.364 311.076C165.093 311.216 165.785 311.496 166.401 311.904L167.505 310.236C166.665 309.68 165.726 309.3 164.74 309.112L164.364 311.076ZM166.403 311.905C167.02 312.312 167.551 312.838 167.964 313.452L169.623 312.336C169.063 311.502 168.342 310.788 167.504 310.235L166.403 311.905ZM167.964 313.452C168.377 314.066 168.664 314.755 168.809 315.482L170.77 315.09C170.573 314.104 170.184 313.169 169.623 312.336L167.964 313.452ZM167.47 295.23C169.874 292.983 172.889 291.499 176.136 290.967L175.812 288.993C172.175 289.589 168.796 291.253 166.104 293.77L167.47 295.23ZM176.136 290.967C179.383 290.433 182.715 290.874 185.711 292.234L186.537 290.413C183.181 288.89 179.449 288.395 175.812 288.993L176.136 290.967ZM185.711 292.234C188.706 293.595 191.232 295.813 192.967 298.609L194.666 297.555C192.722 294.423 189.894 291.937 186.537 290.413L185.711 292.234ZM192.967 298.61C194.702 301.403 195.569 304.652 195.459 307.94L197.458 308.007C197.581 304.324 196.61 300.685 194.666 297.554L192.967 298.61ZM195.459 307.94C195.349 311.229 194.266 314.409 192.347 317.083L193.972 318.249C196.121 315.254 197.334 311.691 197.458 308.007L195.459 307.94ZM192.347 317.083C190.429 319.756 187.761 321.799 184.68 322.956L185.383 324.828C188.834 323.533 191.823 321.244 193.972 318.249L192.347 317.083ZM184.68 322.956C181.6 324.112 178.246 324.329 175.042 323.58L174.587 325.528C178.176 326.367 181.933 326.124 185.383 324.828L184.68 322.956ZM175.042 323.58C171.839 322.831 168.929 321.148 166.682 318.745L165.221 320.111C167.738 322.803 170.998 324.689 174.587 325.528L175.042 323.58ZM166.682 318.745C163.67 315.521 162.061 311.234 162.209 306.823L160.21 306.756C160.044 311.697 161.847 316.499 165.221 320.111L166.682 318.745ZM162.209 306.823C162.357 302.414 164.249 298.245 167.471 295.23L166.104 293.77C162.496 297.147 160.376 301.817 160.21 306.756L162.209 306.823ZM122.973 236.4C122.03 236.731 122.03 236.732 122.03 236.733C122.03 236.733 122.031 236.734 122.031 236.736C122.032 236.738 122.033 236.74 122.034 236.744C122.037 236.751 122.04 236.76 122.044 236.772C122.053 236.795 122.065 236.829 122.081 236.872C122.114 236.958 122.161 237.082 122.225 237.241C122.353 237.559 122.546 238.017 122.81 238.588C123.339 239.728 124.153 241.322 125.304 243.155C127.605 246.819 131.266 251.459 136.7 255.34C147.636 263.149 165.517 267.718 193.37 255.672L192.576 253.836C165.249 265.654 148.131 261.045 137.862 253.712C132.693 250.021 129.2 245.598 126.998 242.092C125.898 240.34 125.123 238.822 124.625 237.747C124.376 237.21 124.197 236.784 124.081 236.495C124.023 236.351 123.981 236.241 123.954 236.169C123.94 236.133 123.93 236.106 123.924 236.089C123.921 236.081 123.919 236.075 123.918 236.071C123.917 236.07 123.917 236.069 123.917 236.068C123.916 236.068 123.917 236.068 123.917 236.068C123.917 236.068 123.917 236.069 122.973 236.4ZM193.371 255.671L227.199 240.997L226.403 239.163L192.575 253.837L193.371 255.671ZM225.802 240.106C226.222 256.097 227.103 283.05 225.764 300.694L227.758 300.846C229.107 283.073 228.22 255.99 227.801 240.054L225.802 240.106ZM226.47 301.727C236.958 304.92 248.141 305.028 258.688 302.036L258.142 300.112C247.965 302.999 237.173 302.895 227.053 299.813L226.47 301.727ZM259.405 301.22C261.48 287.128 263.322 268.948 263.3 252.177C263.288 243.791 262.811 235.736 261.656 228.708C260.504 221.697 258.664 215.626 255.875 211.271L254.191 212.349C256.765 216.37 258.548 222.13 259.682 229.032C260.814 235.918 261.289 243.858 261.3 252.18C261.322 268.822 259.492 286.898 257.426 300.928L259.405 301.22ZM255.875 211.271C248.603 199.911 233.903 198.009 221.451 198.777C215.171 199.164 209.34 200.237 205.083 201.21C202.953 201.697 201.213 202.16 200.004 202.502C199.399 202.673 198.927 202.814 198.604 202.913C198.443 202.962 198.319 203.001 198.235 203.027C198.193 203.04 198.161 203.051 198.139 203.058C198.128 203.061 198.119 203.064 198.113 203.066C198.11 203.067 198.108 203.068 198.107 203.068C198.106 203.068 198.105 203.069 198.105 203.069C198.104 203.069 198.104 203.069 198.413 204.02C198.723 204.971 198.723 204.971 198.723 204.971C198.723 204.971 198.723 204.971 198.724 204.97C198.725 204.97 198.726 204.97 198.729 204.969C198.733 204.967 198.74 204.965 198.75 204.962C198.769 204.956 198.798 204.947 198.837 204.934C198.916 204.909 199.034 204.873 199.189 204.825C199.499 204.731 199.958 204.594 200.548 204.427C201.73 204.092 203.436 203.638 205.529 203.16C209.717 202.202 215.436 201.152 221.574 200.773C233.958 200.01 247.568 202.003 254.191 212.349L255.875 211.271ZM117.328 136.482C115.584 135.239 114.052 133.723 112.791 131.993L111.175 133.171C112.563 135.075 114.248 136.743 116.167 138.11L117.328 136.482ZM111.054 132.952L115.09 143.096L116.948 142.356L112.912 132.212L111.054 132.952Z" fill="#596A8C"/>
</svg>
